<?xml version="1.0" encoding="UTF-8" standalone="no"?>
<!DOCTYPE svg PUBLIC "-//W3C//DTD SVG 1.1//EN" "http://www.w3.org/Graphics/SVG/1.1/DTD/svg11.dtd"
[
<!ATTLIST g
  xmlns:vectornator CDATA #FIXED "http://vectornator.io"
  vectornator:layerName CDATA #IMPLIED >
<!ATTLIST g
  xmlns:vectornator CDATA #FIXED "http://vectornator.io"
  vectornator:mask CDATA #IMPLIED >
<!ATTLIST text
  xmlns:vectornator CDATA #FIXED "http://vectornator.io"
  vectornator:width CDATA #IMPLIED >
<!ATTLIST text
  xmlns:vectornator CDATA #FIXED "http://vectornator.io"
  vectornator:text CDATA #IMPLIED >

<!ATTLIST path
  xmlns:vectornator CDATA #FIXED "http://vectornator.io"
  vectornator:blendMode CDATA #IMPLIED >
<!ATTLIST path
  xmlns:vectornator CDATA #FIXED "http://vectornator.io"
  vectornator:shadowColor CDATA #IMPLIED >
<!ATTLIST path
  xmlns:vectornator CDATA #FIXED "http://vectornator.io"
  vectornator:shadowOpacity CDATA #IMPLIED >
<!ATTLIST path
  xmlns:vectornator CDATA #FIXED "http://vectornator.io"
  vectornator:shadowRadius CDATA #IMPLIED >
<!ATTLIST path
  xmlns:vectornator CDATA #FIXED "http://vectornator.io"
  vectornator:shadowOffset CDATA #IMPLIED >
<!ATTLIST path
  xmlns:vectornator CDATA #FIXED "http://vectornator.io"
  vectornator:shadowAngle CDATA #IMPLIED >

<!ATTLIST image
  xmlns:vectornator CDATA #FIXED "http://vectornator.io"
  vectornator:blendMode CDATA #IMPLIED >
<!ATTLIST image
  xmlns:vectornator CDATA #FIXED "http://vectornator.io"
  vectornator:shadowColor CDATA #IMPLIED >
<!ATTLIST image
  xmlns:vectornator CDATA #FIXED "http://vectornator.io"
  vectornator:shadowOpacity CDATA #IMPLIED >
<!ATTLIST image
  xmlns:vectornator CDATA #FIXED "http://vectornator.io"
  vectornator:shadowRadius CDATA #IMPLIED >
<!ATTLIST image
  xmlns:vectornator CDATA #FIXED "http://vectornator.io"
  vectornator:shadowOffset CDATA #IMPLIED >
<!ATTLIST image
  xmlns:vectornator CDATA #FIXED "http://vectornator.io"
  vectornator:shadowAngle CDATA #IMPLIED >

<!ATTLIST g
  xmlns:vectornator CDATA #FIXED "http://vectornator.io"
  vectornator:blendMode CDATA #IMPLIED >
<!ATTLIST g
  xmlns:vectornator CDATA #FIXED "http://vectornator.io"
  vectornator:shadowColor CDATA #IMPLIED >
<!ATTLIST g
  xmlns:vectornator CDATA #FIXED "http://vectornator.io"
  vectornator:shadowOpacity CDATA #IMPLIED >
<!ATTLIST g
  xmlns:vectornator CDATA #FIXED "http://vectornator.io"
  vectornator:shadowRadius CDATA #IMPLIED >
<!ATTLIST g
  xmlns:vectornator CDATA #FIXED "http://vectornator.io"
  vectornator:shadowOffset CDATA #IMPLIED >
<!ATTLIST g
  xmlns:vectornator CDATA #FIXED "http://vectornator.io"
  vectornator:shadowAngle CDATA #IMPLIED >

<!ENTITY % SVG.filter.extra.content  "| feDropShadow" >
<!ELEMENT feDropShadow EMPTY>
<!ATTLIST feDropShadow
  xmlns:svg CDATA #FIXED "http://www.w3.org/Graphics/SVG/1.1/DTD/svg11.dtd"
  dx CDATA #IMPLIED>
<!ATTLIST feDropShadow
  xmlns:svg CDATA #FIXED "http://www.w3.org/Graphics/SVG/1.1/DTD/svg11.dtd"
  dy CDATA #IMPLIED>
<!ATTLIST feDropShadow
  xmlns:svg CDATA #FIXED "http://www.w3.org/Graphics/SVG/1.1/DTD/svg11.dtd"
  stdDeviation CDATA #IMPLIED>
<!ATTLIST feDropShadow
  xmlns:svg CDATA #FIXED "http://www.w3.org/Graphics/SVG/1.1/DTD/svg11.dtd"
  flood-opacity CDATA #IMPLIED>
<!ATTLIST feDropShadow
  xmlns:svg CDATA #FIXED "http://www.w3.org/Graphics/SVG/1.1/DTD/svg11.dtd"
  in CDATA #IMPLIED>
<!ATTLIST feDropShadow
  xmlns:svg CDATA #FIXED "http://www.w3.org/Graphics/SVG/1.1/DTD/svg11.dtd"
  result CDATA #IMPLIED>
<!ATTLIST feDropShadow
  xmlns:svg CDATA #FIXED "http://www.w3.org/Graphics/SVG/1.1/DTD/svg11.dtd"
  flood-color CDATA #IMPLIED>
]
>
<!-- Created with Vectornator (http://vectornator.io/) -->
<svg height="100%" stroke-miterlimit="10" style="fill-rule:nonzero;clip-rule:evenodd;stroke-linecap:round;stroke-linejoin:round;" version="1.1" viewBox="0 0 1024 1024" width="100%" xml:space="preserve" xmlns="http://www.w3.org/2000/svg" xmlns:vectornator="http://vectornator.io" xmlns:xlink="http://www.w3.org/1999/xlink">
<defs>
<clipPath id="TextBounds">
<rect height="60" width="105" x="320" y="240"/>
</clipPath>
<clipPath id="TextBounds_2">
<rect height="60" width="105" x="601" y="880"/>
</clipPath>
<clipPath id="TextBounds_3">
<rect height="60" width="105" x="880" y="240"/>
</clipPath>
<clipPath id="TextBounds_4">
<rect height="60" width="105" x="880" y="400"/>
</clipPath>
<clipPath id="TextBounds_5">
<rect height="60" width="105" x="877" y="560"/>
</clipPath>
<clipPath id="TextBounds_6">
<rect height="60" width="105" x="879" y="720"/>
</clipPath>
</defs>
<clipPath id="ArtboardFrame">
<rect height="1024" width="1024" x="0" y="0"/>
</clipPath>
<g clip-path="url(#ArtboardFrame)" id="Background" vectornator:layerName="Background">
<path d="M70.0231 9.31535L954.207 9.31535C987.344 9.31535 1014.21 36.1783 1014.21 69.3153L1014.21 953.945C1014.21 987.082 987.344 1013.95 954.207 1013.95L70.0231 1013.95C36.8861 1013.95 10.0231 987.082 10.0231 953.945L10.0231 69.3153C10.0231 36.1783 36.8861 9.31535 70.0231 9.31535Z" fill="#f9f9f9" fill-rule="evenodd" opacity="1" stroke="#6c17b6" stroke-linecap="round" stroke-linejoin="round" stroke-width="21"/>
<path d="M69.4566 17.3009L951.79 17.3009C985.226 17.3009 1012.33 44.1638 1012.33 77.3009L1012.33 127.621C1012.33 160.759 985.226 187.621 951.79 187.621L69.4566 187.621C36.0209 187.621 8.91596 160.759 8.91596 127.621L8.91596 77.3009C8.91596 44.1638 36.0209 17.3009 69.4566 17.3009Z" fill="#6c17b6" fill-rule="evenodd" opacity="1" stroke="none"/>
<path d="M0 120L1025.61 120L1025.61 187.621L0 187.621L0 120Z" fill="#6c17b6" fill-rule="evenodd" opacity="1" stroke="none"/>
</g>
<g id="Layer-1" vectornator:layerName="Layer 1">
<path d="M460 220L560 220L560 320L460 320L460 220Z" fill="none" fill-rule="evenodd" opacity="1" stroke="#6c17b6" stroke-linecap="round" stroke-linejoin="round" stroke-width="15"/>
<path d="M600 220L700 220L700 320L600 320L600 220Z" fill="none" fill-rule="evenodd" opacity="1" stroke="#6c17b6" stroke-linecap="round" stroke-linejoin="round" stroke-width="15"/>
<path d="M740 220L840 220L840 320L740 320L740 220Z" fill="none" fill-rule="evenodd" opacity="1" stroke="#6c17b6" stroke-linecap="round" stroke-linejoin="round" stroke-width="15"/>
<path d="M880 220L980 220L980 320L880 320L880 220Z" fill="none" fill-rule="evenodd" opacity="1" stroke="#ff5e00" stroke-linecap="round" stroke-linejoin="round" stroke-width="15"/>
<path d="M40 380L140 380L140 480L40 480L40 380Z" fill="none" fill-rule="evenodd" opacity="1" stroke="#6c17b6" stroke-linecap="round" stroke-linejoin="round" stroke-width="15"/>
<path d="M180 380L280 380L280 480L180 480L180 380Z" fill="none" fill-rule="evenodd" opacity="1" stroke="#6c17b6" stroke-linecap="round" stroke-linejoin="round" stroke-width="15"/>
<path d="M320 380L420 380L420 480L320 480L320 380Z" fill="none" fill-rule="evenodd" opacity="1" stroke="#6c17b6" stroke-linecap="round" stroke-linejoin="round" stroke-width="15"/>
<path d="M460 380L560 380L560 480L460 480L460 380Z" fill="none" fill-rule="evenodd" opacity="1" stroke="#6c17b6" stroke-linecap="round" stroke-linejoin="round" stroke-width="15"/>
<path d="M600 380L700 380L700 480L600 480L600 380Z" fill="none" fill-rule="evenodd" opacity="1" stroke="#6c17b6" stroke-linecap="round" stroke-linejoin="round" stroke-width="15"/>
<path d="M740 380L840 380L840 480L740 480L740 380Z" fill="none" fill-rule="evenodd" opacity="1" stroke="#6c17b6" stroke-linecap="round" stroke-linejoin="round" stroke-width="15"/>
<path d="M880 380L980 380L980 480L880 480L880 380Z" fill="none" fill-rule="evenodd" opacity="1" stroke="#ff5e00" stroke-linecap="round" stroke-linejoin="round" stroke-width="15"/>
<path d="M40 540L140 540L140 640L40 640L40 540Z" fill="none" fill-rule="evenodd" opacity="1" stroke="#6c17b6" stroke-linecap="round" stroke-linejoin="round" stroke-width="15"/>
<path d="M180 540L280 540L280 640L180 640L180 540Z" fill="none" fill-rule="evenodd" opacity="1" stroke="#6c17b6" stroke-linecap="round" stroke-linejoin="round" stroke-width="15"/>
<path d="M320 540L420 540L420 640L320 640L320 540Z" fill="none" fill-rule="evenodd" opacity="1" stroke="#6c17b6" stroke-linecap="round" stroke-linejoin="round" stroke-width="15"/>
<path d="M460 540L560 540L560 640L460 640L460 540Z" fill="none" fill-rule="evenodd" opacity="1" stroke="#6c17b6" stroke-linecap="round" stroke-linejoin="round" stroke-width="15"/>
<path d="M600 540L700 540L700 640L600 640L600 540Z" fill="none" fill-rule="evenodd" opacity="1" stroke="#6c17b6" stroke-linecap="round" stroke-linejoin="round" stroke-width="15"/>
<path d="M740 540L840 540L840 640L740 640L740 540Z" fill="none" fill-rule="evenodd" opacity="1" stroke="#6c17b6" stroke-linecap="round" stroke-linejoin="round" stroke-width="15"/>
<path d="M880 540L980 540L980 640L880 640L880 540Z" fill="none" fill-rule="evenodd" opacity="1" stroke="#ff5e00" stroke-linecap="round" stroke-linejoin="round" stroke-width="15"/>
<path d="M40 700L140 700L140 800L40 800L40 700Z" fill="none" fill-rule="evenodd" opacity="1" stroke="#6c17b6" stroke-linecap="round" stroke-linejoin="round" stroke-width="15"/>
<path d="M180 700L280 700L280 800L180 800L180 700Z" fill="none" fill-rule="evenodd" opacity="1" stroke="#6c17b6" stroke-linecap="round" stroke-linejoin="round" stroke-width="15"/>
<path d="M320 700L420 700L420 800L320 800L320 700Z" fill="none" fill-rule="evenodd" opacity="1" stroke="#6c17b6" stroke-linecap="round" stroke-linejoin="round" stroke-width="15"/>
<path d="M460 700L560 700L560 800L460 800L460 700Z" fill="none" fill-rule="evenodd" opacity="1" stroke="#6c17b6" stroke-linecap="round" stroke-linejoin="round" stroke-width="15"/>
<path d="M600 700L700 700L700 800L600 800L600 700Z" fill="none" fill-rule="evenodd" opacity="1" stroke="#6c17b6" stroke-linecap="round" stroke-linejoin="round" stroke-width="15"/>
<path d="M740 700L840 700L840 800L740 800L740 700Z" fill="none" fill-rule="evenodd" opacity="1" stroke="#6c17b6" stroke-linecap="round" stroke-linejoin="round" stroke-width="15"/>
<path d="M880 700L980 700L980 800L880 800L880 700Z" fill="none" fill-rule="evenodd" opacity="1" stroke="#ff5e00" stroke-linecap="round" stroke-linejoin="round" stroke-width="15"/>
<path d="M40 860L140 860L140 960L40 960L40 860Z" fill="none" fill-rule="evenodd" opacity="1" stroke="#6c17b6" stroke-linecap="round" stroke-linejoin="round" stroke-width="15"/>
<path d="M180 860L280 860L280 960L180 960L180 860Z" fill="none" fill-rule="evenodd" opacity="1" stroke="#6c17b6" stroke-linecap="round" stroke-linejoin="round" stroke-width="15"/>
<path d="M320 860L420 860L420 960L320 960L320 860Z" fill="none" fill-rule="evenodd" opacity="1" stroke="#6c17b6" stroke-linecap="round" stroke-linejoin="round" stroke-width="15"/>
<path d="M460 860L560 860L560 960L460 960L460 860Z" fill="none" fill-rule="evenodd" opacity="1" stroke="#6c17b6" stroke-linecap="round" stroke-linejoin="round" stroke-width="15"/>
<path d="M600 860L700 860L700 960L600 960L600 860Z" fill="none" fill-rule="evenodd" opacity="1" stroke="#6c17b6" stroke-linecap="round" stroke-linejoin="round" stroke-width="15"/>
<path d="M320 220L420 220L420 320L320 320L320 220Z" fill="none" fill-rule="evenodd" opacity="1" stroke="#6c17b6" stroke-linecap="round" stroke-linejoin="round" stroke-width="15"/>
<path clip-path="url(#TextBounds)" d="M375.933 286L367.681 286L367.681 259.73L359.575 262.099L359.575 255.849L375.176 250.453L375.933 250.453L375.933 286Z" fill="#ff5e00" fill-rule="evenodd" opacity="1" stroke="none"/>
<g fill="#ff5e00" opacity="1" stroke="none">
<path clip-path="url(#TextBounds_2)" d="M631.737 904.784L635.619 904.784C638.695 904.784 640.233 903.279 640.233 900.268C640.233 899.096 639.867 898.139 639.135 897.399C638.402 896.658 637.369 896.288 636.034 896.288C634.944 896.288 633.996 896.605 633.19 897.24C632.384 897.875 631.981 898.664 631.981 899.608L623.754 899.608C623.754 897.737 624.275 896.068 625.316 894.604C626.358 893.139 627.803 891.995 629.65 891.173C631.497 890.351 633.528 889.94 635.741 889.94C639.696 889.94 642.805 890.844 645.067 892.65C647.33 894.457 648.461 896.939 648.461 900.097C648.461 901.627 647.993 903.071 647.057 904.43C646.121 905.789 644.758 906.892 642.968 907.738C644.856 908.422 646.337 909.459 647.411 910.851C648.485 912.243 649.022 913.964 649.022 916.015C649.022 919.188 647.802 921.728 645.36 923.632C642.919 925.536 639.713 926.488 635.741 926.488C633.414 926.488 631.253 926.045 629.259 925.158C627.265 924.271 625.756 923.042 624.73 921.471C623.705 919.901 623.192 918.114 623.192 916.112L631.469 916.112C631.469 917.203 631.908 918.147 632.787 918.944C633.666 919.742 634.748 920.141 636.034 920.141C637.483 920.141 638.638 919.738 639.501 918.932C640.364 918.126 640.795 917.097 640.795 915.844C640.795 914.053 640.347 912.784 639.452 912.035C638.557 911.286 637.32 910.912 635.741 910.912L631.737 910.912L631.737 904.784Z" fill-rule="evenodd"/>
<path clip-path="url(#TextBounds_2)" d="M671.41 926L663.158 926L663.158 899.73L655.053 902.099L655.053 895.849L670.653 890.453L671.41 890.453L671.41 926Z" fill-rule="evenodd"/>
</g>
<path clip-path="url(#TextBounds_3)" d="M918.184 268.617L920.356 250.453L941.133 250.453L941.133 256.85L927.046 256.85L926.24 263.905C926.826 263.563 927.595 263.262 928.547 263.002C929.5 262.742 930.431 262.611 931.343 262.611C934.875 262.611 937.589 263.657 939.485 265.749C941.381 267.84 942.329 270.774 942.329 274.55C942.329 276.828 941.82 278.891 940.803 280.739C939.786 282.586 938.358 284.006 936.519 284.999C934.679 285.992 932.507 286.488 930 286.488C927.77 286.488 925.679 286.028 923.726 285.109C921.772 284.189 920.243 282.928 919.136 281.325C918.029 279.722 917.484 277.911 917.5 275.893L925.752 275.893C925.833 277.195 926.248 278.228 926.997 278.993C927.746 279.758 928.73 280.141 929.951 280.141C932.718 280.141 934.102 278.09 934.102 273.988C934.102 270.196 932.409 268.3 929.023 268.3C927.103 268.3 925.671 268.918 924.727 270.155L918.184 268.617Z" fill="#6c17b6" fill-rule="evenodd" opacity="1" stroke="none"/>
<g fill="#6c17b6" opacity="1" stroke="none">
<path clip-path="url(#TextBounds_4)" d="M921.455 446L913.203 446L913.203 419.73L905.098 422.099L905.098 415.849L920.698 410.453L921.455 410.453L921.455 446Z" fill-rule="evenodd"/>
<path clip-path="url(#TextBounds_4)" d="M956.978 446L932.173 446L932.173 440.629L943.599 428.617C946.414 425.411 947.822 422.864 947.822 420.976C947.822 419.446 947.489 418.282 946.821 417.484C946.154 416.687 945.186 416.288 943.916 416.288C942.663 416.288 941.646 416.821 940.864 417.887C940.083 418.953 939.692 420.284 939.692 421.879L931.44 421.879C931.44 419.698 931.986 417.684 933.076 415.836C934.167 413.989 935.68 412.545 937.617 411.503C939.554 410.461 941.719 409.94 944.111 409.94C947.952 409.94 950.911 410.827 952.986 412.602C955.061 414.376 956.099 416.923 956.099 420.243C956.099 421.643 955.838 423.006 955.317 424.333C954.797 425.659 953.987 427.051 952.888 428.507C951.79 429.964 950.02 431.913 947.578 434.354L942.988 439.652L956.978 439.652L956.978 446Z" fill-rule="evenodd"/>
</g>
<g fill="#6c17b6" opacity="1" stroke="none">
<path clip-path="url(#TextBounds_5)" d="M918.455 606L910.203 606L910.203 579.73L902.098 582.099L902.098 575.849L917.698 570.453L918.455 570.453L918.455 606Z" fill-rule="evenodd"/>
<path clip-path="url(#TextBounds_5)" d="M945.384 592.255C943.61 593.85 941.624 594.647 939.427 594.647C936.204 594.647 933.649 593.557 931.761 591.376C929.873 589.195 928.929 586.282 928.929 582.636C928.929 580.357 929.458 578.241 930.516 576.288C931.574 574.335 933.059 572.789 934.971 571.649C936.884 570.51 938.995 569.94 941.307 569.94C943.65 569.94 945.77 570.53 947.667 571.71C949.563 572.89 951.04 574.559 952.098 576.715C953.156 578.872 953.701 581.358 953.733 584.174L953.733 587.323C953.733 591.246 952.964 594.647 951.426 597.528C949.888 600.409 947.695 602.623 944.847 604.169C941.998 605.715 938.678 606.488 934.886 606.488L934.373 606.488L934.373 599.896L935.936 599.872C941.6 599.595 944.749 597.056 945.384 592.255ZM941.648 588.715C943.439 588.715 944.725 587.942 945.506 586.396L945.506 582.978C945.506 580.699 945.123 579.014 944.358 577.924C943.593 576.833 942.56 576.288 941.258 576.288C940.102 576.288 939.134 576.907 938.353 578.144C937.571 579.381 937.181 580.878 937.181 582.636C937.181 584.491 937.579 585.968 938.377 587.067C939.174 588.166 940.265 588.715 941.648 588.715Z" fill-rule="evenodd"/>
</g>
<g fill="#6c17b6" opacity="1" stroke="none">
<path clip-path="url(#TextBounds_6)" d="M927.022 766L902.218 766L902.218 760.629L913.644 748.617C916.459 745.411 917.867 742.864 917.867 740.976C917.867 739.446 917.534 738.282 916.866 737.484C916.199 736.687 915.23 736.288 913.961 736.288C912.708 736.288 911.69 736.821 910.909 737.887C910.128 738.953 909.737 740.284 909.737 741.879L901.485 741.879C901.485 739.698 902.031 737.684 903.121 735.836C904.212 733.989 905.725 732.545 907.662 731.503C909.599 730.461 911.764 729.94 914.156 729.94C917.997 729.94 920.956 730.827 923.031 732.602C925.106 734.376 926.144 736.923 926.144 740.243C926.144 741.643 925.883 743.006 925.362 744.333C924.841 745.659 924.032 747.051 922.933 748.507C921.834 749.964 920.064 751.913 917.623 754.354L913.033 759.652L927.022 759.652L927.022 766Z" fill-rule="evenodd"/>
<path clip-path="url(#TextBounds_6)" d="M951.046 729.94L951.046 736.41L950.68 736.41C947.604 736.41 945.077 737.147 943.099 738.62C941.122 740.093 939.905 742.139 939.449 744.76C941.305 742.937 943.648 742.025 946.48 742.025C949.557 742.025 952.006 743.148 953.829 745.395C955.652 747.641 956.563 750.587 956.563 754.232C956.563 756.495 956.03 758.57 954.964 760.458C953.898 762.346 952.409 763.823 950.497 764.889C948.584 765.955 946.464 766.488 944.137 766.488C941.614 766.488 939.36 765.915 937.374 764.767C935.388 763.62 933.842 761.98 932.735 759.848C931.629 757.715 931.059 755.258 931.026 752.475L931.026 749.179C931.026 745.517 931.812 742.225 933.382 739.303C934.953 736.382 937.195 734.091 940.108 732.431C943.022 730.771 946.253 729.94 949.801 729.94L951.046 729.94ZM943.624 748.324C942.534 748.324 941.622 748.576 940.89 749.081C940.157 749.586 939.612 750.204 939.254 750.937L939.254 753.402C939.254 757.895 940.808 760.141 943.917 760.141C945.17 760.141 946.216 759.579 947.054 758.456C947.892 757.333 948.312 755.925 948.312 754.232C948.312 752.491 947.884 751.071 947.03 749.972C946.175 748.874 945.04 748.324 943.624 748.324Z" fill-rule="evenodd"/>
</g>
<path d="M160 60L660 60L660 120L160 120L160 60Z" fill="#ffffff" fill-rule="evenodd" opacity="1" stroke="none"/>
<path d="M720 60L960 60L960 120L720 120L720 60Z" fill="#ff5e00" fill-rule="evenodd" opacity="1" stroke="none"/>
</g>
</svg>
