<?xml version="1.0" encoding="UTF-8" standalone="no"?>
<!DOCTYPE svg PUBLIC "-//W3C//DTD SVG 1.1//EN" "http://www.w3.org/Graphics/SVG/1.1/DTD/svg11.dtd"
[
<!ATTLIST g
  xmlns:vectornator CDATA #FIXED "http://vectornator.io"
  vectornator:layerName CDATA #IMPLIED >
<!ATTLIST g
  xmlns:vectornator CDATA #FIXED "http://vectornator.io"
  vectornator:mask CDATA #IMPLIED >
<!ATTLIST text
  xmlns:vectornator CDATA #FIXED "http://vectornator.io"
  vectornator:width CDATA #IMPLIED >
<!ATTLIST text
  xmlns:vectornator CDATA #FIXED "http://vectornator.io"
  vectornator:text CDATA #IMPLIED >

<!ATTLIST path
  xmlns:vectornator CDATA #FIXED "http://vectornator.io"
  vectornator:blendMode CDATA #IMPLIED >
<!ATTLIST path
  xmlns:vectornator CDATA #FIXED "http://vectornator.io"
  vectornator:shadowColor CDATA #IMPLIED >
<!ATTLIST path
  xmlns:vectornator CDATA #FIXED "http://vectornator.io"
  vectornator:shadowOpacity CDATA #IMPLIED >
<!ATTLIST path
  xmlns:vectornator CDATA #FIXED "http://vectornator.io"
  vectornator:shadowRadius CDATA #IMPLIED >
<!ATTLIST path
  xmlns:vectornator CDATA #FIXED "http://vectornator.io"
  vectornator:shadowOffset CDATA #IMPLIED >
<!ATTLIST path
  xmlns:vectornator CDATA #FIXED "http://vectornator.io"
  vectornator:shadowAngle CDATA #IMPLIED >

<!ATTLIST image
  xmlns:vectornator CDATA #FIXED "http://vectornator.io"
  vectornator:blendMode CDATA #IMPLIED >
<!ATTLIST image
  xmlns:vectornator CDATA #FIXED "http://vectornator.io"
  vectornator:shadowColor CDATA #IMPLIED >
<!ATTLIST image
  xmlns:vectornator CDATA #FIXED "http://vectornator.io"
  vectornator:shadowOpacity CDATA #IMPLIED >
<!ATTLIST image
  xmlns:vectornator CDATA #FIXED "http://vectornator.io"
  vectornator:shadowRadius CDATA #IMPLIED >
<!ATTLIST image
  xmlns:vectornator CDATA #FIXED "http://vectornator.io"
  vectornator:shadowOffset CDATA #IMPLIED >
<!ATTLIST image
  xmlns:vectornator CDATA #FIXED "http://vectornator.io"
  vectornator:shadowAngle CDATA #IMPLIED >

<!ATTLIST g
  xmlns:vectornator CDATA #FIXED "http://vectornator.io"
  vectornator:blendMode CDATA #IMPLIED >
<!ATTLIST g
  xmlns:vectornator CDATA #FIXED "http://vectornator.io"
  vectornator:shadowColor CDATA #IMPLIED >
<!ATTLIST g
  xmlns:vectornator CDATA #FIXED "http://vectornator.io"
  vectornator:shadowOpacity CDATA #IMPLIED >
<!ATTLIST g
  xmlns:vectornator CDATA #FIXED "http://vectornator.io"
  vectornator:shadowRadius CDATA #IMPLIED >
<!ATTLIST g
  xmlns:vectornator CDATA #FIXED "http://vectornator.io"
  vectornator:shadowOffset CDATA #IMPLIED >
<!ATTLIST g
  xmlns:vectornator CDATA #FIXED "http://vectornator.io"
  vectornator:shadowAngle CDATA #IMPLIED >

<!ENTITY % SVG.filter.extra.content  "| feDropShadow" >
<!ELEMENT feDropShadow EMPTY>
<!ATTLIST feDropShadow
  xmlns:svg CDATA #FIXED "http://www.w3.org/Graphics/SVG/1.1/DTD/svg11.dtd"
  dx CDATA #IMPLIED>
<!ATTLIST feDropShadow
  xmlns:svg CDATA #FIXED "http://www.w3.org/Graphics/SVG/1.1/DTD/svg11.dtd"
  dy CDATA #IMPLIED>
<!ATTLIST feDropShadow
  xmlns:svg CDATA #FIXED "http://www.w3.org/Graphics/SVG/1.1/DTD/svg11.dtd"
  stdDeviation CDATA #IMPLIED>
<!ATTLIST feDropShadow
  xmlns:svg CDATA #FIXED "http://www.w3.org/Graphics/SVG/1.1/DTD/svg11.dtd"
  flood-opacity CDATA #IMPLIED>
<!ATTLIST feDropShadow
  xmlns:svg CDATA #FIXED "http://www.w3.org/Graphics/SVG/1.1/DTD/svg11.dtd"
  in CDATA #IMPLIED>
<!ATTLIST feDropShadow
  xmlns:svg CDATA #FIXED "http://www.w3.org/Graphics/SVG/1.1/DTD/svg11.dtd"
  result CDATA #IMPLIED>
<!ATTLIST feDropShadow
  xmlns:svg CDATA #FIXED "http://www.w3.org/Graphics/SVG/1.1/DTD/svg11.dtd"
  flood-color CDATA #IMPLIED>
]
>
<!-- Created with Vectornator (http://vectornator.io/) -->
<svg height="100%" stroke-miterlimit="10" style="fill-rule:nonzero;clip-rule:evenodd;stroke-linecap:round;stroke-linejoin:round;" version="1.1" viewBox="0 0 1024 1024" width="100%" xml:space="preserve" xmlns="http://www.w3.org/2000/svg" xmlns:vectornator="http://vectornator.io" xmlns:xlink="http://www.w3.org/1999/xlink">
<defs/>
<clipPath id="ArtboardFrame">
<rect height="1024" width="1024" x="0" y="0"/>
</clipPath>
<g clip-path="url(#ArtboardFrame)" id="Background" vectornator:layerName="Background">
<path d="M91.8676 28.8731L935.043 28.8731C966.643 28.8731 992.26 54.5837 992.26 86.2992L992.26 932.981C992.26 964.696 966.643 990.407 935.043 990.407L91.8676 990.407C60.2674 990.407 34.6504 964.696 34.6504 932.981L34.6504 86.2992C34.6504 54.5837 60.2674 28.8731 91.8676 28.8731Z" fill="#f9f9f9" fill-rule="evenodd" opacity="1" stroke="#6c17b6" stroke-linecap="round" stroke-linejoin="round" stroke-width="70"/>
<path d="M69.4566 17.3009L951.79 17.3009C985.226 17.3009 1012.33 44.1638 1012.33 77.3009L1012.33 127.621C1012.33 160.759 985.226 187.621 951.79 187.621L69.4566 187.621C36.0209 187.621 8.91596 160.759 8.91596 127.621L8.91596 77.3009C8.91596 44.1638 36.0209 17.3009 69.4566 17.3009Z" fill="#6c17b6" fill-rule="evenodd" opacity="1" stroke="none"/>
<path d="M0 120L1025.61 120L1025.61 187.621L0 187.621L0 120Z" fill="#6c17b6" fill-rule="evenodd" opacity="1" stroke="none"/>
</g>
<g id="Layer-1" vectornator:layerName="Layer 1">
<path d="M469.067 254.095L550.933 254.095L550.933 335.961L469.067 335.961L469.067 254.095Z" fill="#6c17b6" fill-rule="evenodd" opacity="1" stroke="#6c17b6" stroke-linecap="round" stroke-linejoin="round" stroke-width="15"/>
<path d="M583.68 254.095L665.546 254.095L665.546 335.961L583.68 335.961L583.68 254.095Z" fill="#6c17b6" fill-rule="evenodd" opacity="1" stroke="#6c17b6" stroke-linecap="round" stroke-linejoin="round" stroke-width="15"/>
<path d="M698.292 254.095L780.159 254.095L780.159 335.961L698.292 335.961L698.292 254.095Z" fill="#6c17b6" fill-rule="evenodd" opacity="1" stroke="#6c17b6" stroke-linecap="round" stroke-linejoin="round" stroke-width="15"/>
<path d="M812.905 254.095L894.771 254.095L894.771 335.961L812.905 335.961L812.905 254.095Z" fill="#ff5e00" fill-rule="evenodd" opacity="1" stroke="#ff5e00" stroke-linecap="round" stroke-linejoin="round" stroke-width="15"/>
<path d="M125.229 390.081L207.095 390.081L207.095 471.947L125.229 471.947L125.229 390.081Z" fill="#6c17b6" fill-rule="evenodd" opacity="1" stroke="#6c17b6" stroke-linecap="round" stroke-linejoin="round" stroke-width="15"/>
<path d="M239.841 390.081L321.708 390.081L321.708 471.947L239.841 471.947L239.841 390.081Z" fill="#6c17b6" fill-rule="evenodd" opacity="1" stroke="#6c17b6" stroke-linecap="round" stroke-linejoin="round" stroke-width="15"/>
<path d="M354.454 390.081L436.32 390.081L436.32 471.947L354.454 471.947L354.454 390.081Z" fill="#6c17b6" fill-rule="evenodd" opacity="1" stroke="#6c17b6" stroke-linecap="round" stroke-linejoin="round" stroke-width="15"/>
<path d="M469.067 390.081L550.933 390.081L550.933 471.947L469.067 471.947L469.067 390.081Z" fill="#6c17b6" fill-rule="evenodd" opacity="1" stroke="#6c17b6" stroke-linecap="round" stroke-linejoin="round" stroke-width="15"/>
<path d="M583.68 390.081L665.546 390.081L665.546 471.947L583.68 471.947L583.68 390.081Z" fill="#6c17b6" fill-rule="evenodd" opacity="1" stroke="#6c17b6" stroke-linecap="round" stroke-linejoin="round" stroke-width="15"/>
<path d="M698.292 390.081L780.159 390.081L780.159 471.947L698.292 471.947L698.292 390.081Z" fill="#6c17b6" fill-rule="evenodd" opacity="1" stroke="#6c17b6" stroke-linecap="round" stroke-linejoin="round" stroke-width="15"/>
<path d="M812.905 390.081L894.771 390.081L894.771 471.947L812.905 471.947L812.905 390.081Z" fill="#ff5e00" fill-rule="evenodd" opacity="1" stroke="#ff5e00" stroke-linecap="round" stroke-linejoin="round" stroke-width="15"/>
<path d="M125.229 528.067L207.095 528.067L207.095 609.933L125.229 609.933L125.229 528.067Z" fill="#6c17b6" fill-rule="evenodd" opacity="1" stroke="#6c17b6" stroke-linecap="round" stroke-linejoin="round" stroke-width="15"/>
<path d="M239.841 528.067L321.708 528.067L321.708 609.933L239.841 609.933L239.841 528.067Z" fill="#6c17b6" fill-rule="evenodd" opacity="1" stroke="#6c17b6" stroke-linecap="round" stroke-linejoin="round" stroke-width="15"/>
<path d="M354.454 528.067L436.32 528.067L436.32 609.933L354.454 609.933L354.454 528.067Z" fill="#6c17b6" fill-rule="evenodd" opacity="1" stroke="#6c17b6" stroke-linecap="round" stroke-linejoin="round" stroke-width="15"/>
<path d="M469.067 528.067L550.933 528.067L550.933 609.933L469.067 609.933L469.067 528.067Z" fill="#6c17b6" fill-rule="evenodd" opacity="1" stroke="#6c17b6" stroke-linecap="round" stroke-linejoin="round" stroke-width="15"/>
<path d="M583.68 528.067L665.546 528.067L665.546 609.933L583.68 609.933L583.68 528.067Z" fill="#6c17b6" fill-rule="evenodd" opacity="1" stroke="#6c17b6" stroke-linecap="round" stroke-linejoin="round" stroke-width="15"/>
<path d="M698.292 528.067L780.159 528.067L780.159 609.933L698.292 609.933L698.292 528.067Z" fill="#6c17b6" fill-rule="evenodd" opacity="1" stroke="#6c17b6" stroke-linecap="round" stroke-linejoin="round" stroke-width="15"/>
<path d="M812.905 528.067L894.771 528.067L894.771 609.933L812.905 609.933L812.905 528.067Z" fill="#ff5e00" fill-rule="evenodd" opacity="1" stroke="#ff5e00" stroke-linecap="round" stroke-linejoin="round" stroke-width="15"/>
<path d="M125.229 669.053L207.095 669.053L207.095 750.919L125.229 750.919L125.229 669.053Z" fill="#6c17b6" fill-rule="evenodd" opacity="1" stroke="#6c17b6" stroke-linecap="round" stroke-linejoin="round" stroke-width="15"/>
<path d="M239.841 669.053L321.708 669.053L321.708 750.919L239.841 750.919L239.841 669.053Z" fill="#6c17b6" fill-rule="evenodd" opacity="1" stroke="#6c17b6" stroke-linecap="round" stroke-linejoin="round" stroke-width="15"/>
<path d="M354.454 669.053L436.32 669.053L436.32 750.919L354.454 750.919L354.454 669.053Z" fill="#6c17b6" fill-rule="evenodd" opacity="1" stroke="#6c17b6" stroke-linecap="round" stroke-linejoin="round" stroke-width="15"/>
<path d="M469.067 669.053L550.933 669.053L550.933 750.919L469.067 750.919L469.067 669.053Z" fill="#6c17b6" fill-rule="evenodd" opacity="1" stroke="#6c17b6" stroke-linecap="round" stroke-linejoin="round" stroke-width="15"/>
<path d="M583.68 669.053L665.546 669.053L665.546 750.919L583.68 750.919L583.68 669.053Z" fill="#6c17b6" fill-rule="evenodd" opacity="1" stroke="#6c17b6" stroke-linecap="round" stroke-linejoin="round" stroke-width="15"/>
<path d="M698.292 669.053L780.159 669.053L780.159 750.919L698.292 750.919L698.292 669.053Z" fill="#6c17b6" fill-rule="evenodd" opacity="1" stroke="#6c17b6" stroke-linecap="round" stroke-linejoin="round" stroke-width="15"/>
<path d="M812.905 669.053L894.771 669.053L894.771 750.919L812.905 750.919L812.905 669.053Z" fill="#ff5e00" fill-rule="evenodd" opacity="1" stroke="#ff5e00" stroke-linecap="round" stroke-linejoin="round" stroke-width="15"/>
<path d="M125.229 810.039L207.095 810.039L207.095 891.905L125.229 891.905L125.229 810.039Z" fill="#6c17b6" fill-rule="evenodd" opacity="1" stroke="#6c17b6" stroke-linecap="round" stroke-linejoin="round" stroke-width="15"/>
<path d="M239.841 810.039L321.708 810.039L321.708 891.905L239.841 891.905L239.841 810.039Z" fill="#6c17b6" fill-rule="evenodd" opacity="1" stroke="#6c17b6" stroke-linecap="round" stroke-linejoin="round" stroke-width="15"/>
<path d="M354.454 810.039L436.32 810.039L436.32 891.905L354.454 891.905L354.454 810.039Z" fill="#6c17b6" fill-rule="evenodd" opacity="1" stroke="#6c17b6" stroke-linecap="round" stroke-linejoin="round" stroke-width="15"/>
<path d="M469.067 810.039L550.933 810.039L550.933 891.905L469.067 891.905L469.067 810.039Z" fill="#6c17b6" fill-rule="evenodd" opacity="1" stroke="#6c17b6" stroke-linecap="round" stroke-linejoin="round" stroke-width="15"/>
<path d="M583.68 810.039L665.546 810.039L665.546 891.905L583.68 891.905L583.68 810.039Z" fill="#6c17b6" fill-rule="evenodd" opacity="1" stroke="#6c17b6" stroke-linecap="round" stroke-linejoin="round" stroke-width="15"/>
<path d="M354.454 254.095L436.32 254.095L436.32 335.961L354.454 335.961L354.454 254.095Z" fill="#6c17b6" fill-rule="evenodd" opacity="1" stroke="#6c17b6" stroke-linecap="round" stroke-linejoin="round" stroke-width="15"/>
<path d="M160 60L660 60L660 120L160 120L160 60Z" fill="#ffffff" fill-rule="evenodd" opacity="1" stroke="none"/>
<path d="M720 60L960 60L960 120L720 120L720 60Z" fill="#ff5e00" fill-rule="evenodd" opacity="1" stroke="none"/>
</g>
</svg>
